<?xml version="1.0" standalone="no"?>
<!DOCTYPE svg PUBLIC "-//W3C//DTD SVG 20010904//EN"
 "http://www.w3.org/TR/2001/REC-SVG-20010904/DTD/svg10.dtd">
<svg version="1.0" xmlns="http://www.w3.org/2000/svg"
 width="1766.000000pt" height="1680.000000pt" viewBox="0 0 1766.000000 1680.000000"
 preserveAspectRatio="xMidYMid meet">

<g transform="translate(0.000000,1680.000000) scale(0.100000,-0.100000)"
fill="#000000" stroke="none">
<path d="M8557 15963 c-152 -461 -322 -977 -377 -1148 -81 -246 -1128 -3472
-1379 -4245 l-57 -175 -3374 -5 -3375 -5 35 -37 c35 -36 342 -259 2445 -1779
1343 -971 2737 -1981 2972 -2153 1 -1 -89 -283 -201 -627 -724 -2217 -1876
-5762 -1876 -5773 0 -19 384 250 880 619 201 149 487 358 635 465 822 589
3519 2549 3823 2778 71 53 118 82 127 78 9 -3 96 -64 193 -134 97 -71 375
-272 617 -447 242 -175 946 -688 1565 -1140 619 -452 1289 -941 1490 -1086
716 -520 1593 -1148 1598 -1144 4 3 -1035 3204 -1894 5834 -101 311 -181 568
-177 572 83 74 875 657 1568 1154 658 472 834 600 1240 899 453 334 1189 868
1978 1436 355 256 646 471 647 478 0 9 -678 12 -3360 12 l-3360 0 -30 60 c-17
33 -49 124 -71 203 -63 220 -355 1119 -1104 3397 -205 624 -477 1455 -605
1845 -127 391 -246 754 -263 808 l-33 99 -277 -839z"/>
</g>
</svg>
